<mxfile host="app.diagrams.net" modified="2020-09-01T07:07:38.348Z" agent="5.0 (Windows)" etag="faTdzNJ7ZWtLoowWxg6p" version="13.6.6" type="github">
  <diagram id="kgpKYQtTHZ0yAKxKKP6v" name="Page-1">
    <mxGraphModel dx="1730" dy="1025" grid="1" gridSize="10" guides="1" tooltips="1" connect="1" arrows="1" fold="1" page="1" pageScale="1" pageWidth="1100" pageHeight="850" math="0" shadow="0">
      <root>
        <mxCell id="0" />
        <mxCell id="1" parent="0" />
        <mxCell id="7nTFXwoVaiZGbbg3Zt6U-10" style="edgeStyle=orthogonalEdgeStyle;rounded=0;orthogonalLoop=1;jettySize=auto;html=1;exitX=1;exitY=0.5;exitDx=0;exitDy=0;entryX=0;entryY=0.5;entryDx=0;entryDy=0;" edge="1" parent="1" source="7nTFXwoVaiZGbbg3Zt6U-2" target="7nTFXwoVaiZGbbg3Zt6U-6">
          <mxGeometry relative="1" as="geometry" />
        </mxCell>
        <mxCell id="7nTFXwoVaiZGbbg3Zt6U-48" style="edgeStyle=orthogonalEdgeStyle;rounded=0;orthogonalLoop=1;jettySize=auto;html=1;exitX=0.25;exitY=0;exitDx=0;exitDy=0;entryX=0.546;entryY=1.006;entryDx=0;entryDy=0;entryPerimeter=0;" edge="1" parent="1" source="7nTFXwoVaiZGbbg3Zt6U-2" target="7nTFXwoVaiZGbbg3Zt6U-14">
          <mxGeometry relative="1" as="geometry" />
        </mxCell>
        <mxCell id="7nTFXwoVaiZGbbg3Zt6U-2" value="&lt;font style=&quot;font-size: 14px&quot;&gt;Game Engine&lt;br&gt;&lt;/font&gt;" style="rounded=1;whiteSpace=wrap;html=1;fillColor=#f8cecc;strokeColor=#b85450;" vertex="1" parent="1">
          <mxGeometry x="565" y="470" width="160" height="110" as="geometry" />
        </mxCell>
        <mxCell id="7nTFXwoVaiZGbbg3Zt6U-3" value="&lt;div&gt;&lt;font style=&quot;font-size: 18px&quot;&gt;Models/&lt;/font&gt;&lt;/div&gt;&lt;div&gt;&lt;font style=&quot;font-size: 18px&quot;&gt;Animation&lt;/font&gt;&lt;/div&gt;" style="rounded=1;whiteSpace=wrap;html=1;fillColor=#d5e8d4;strokeColor=#82b366;" vertex="1" parent="1">
          <mxGeometry x="350" y="320" width="120" height="60" as="geometry" />
        </mxCell>
        <mxCell id="7nTFXwoVaiZGbbg3Zt6U-4" value="&lt;font style=&quot;font-size: 18px&quot;&gt;Music&lt;/font&gt;" style="rounded=1;whiteSpace=wrap;html=1;fillColor=#e1d5e7;strokeColor=#9673a6;" vertex="1" parent="1">
          <mxGeometry x="260" y="495" width="120" height="60" as="geometry" />
        </mxCell>
        <mxCell id="7nTFXwoVaiZGbbg3Zt6U-46" style="edgeStyle=orthogonalEdgeStyle;rounded=0;orthogonalLoop=1;jettySize=auto;html=1;" edge="1" parent="1" source="7nTFXwoVaiZGbbg3Zt6U-5" target="7nTFXwoVaiZGbbg3Zt6U-45">
          <mxGeometry relative="1" as="geometry" />
        </mxCell>
        <mxCell id="7nTFXwoVaiZGbbg3Zt6U-47" style="edgeStyle=orthogonalEdgeStyle;rounded=0;orthogonalLoop=1;jettySize=auto;html=1;entryX=0.5;entryY=0;entryDx=0;entryDy=0;" edge="1" parent="1" source="7nTFXwoVaiZGbbg3Zt6U-5" target="7nTFXwoVaiZGbbg3Zt6U-44">
          <mxGeometry relative="1" as="geometry" />
        </mxCell>
        <mxCell id="7nTFXwoVaiZGbbg3Zt6U-5" value="&lt;font style=&quot;font-size: 18px&quot;&gt;Coding&lt;/font&gt;" style="rounded=1;whiteSpace=wrap;html=1;fillColor=#b1ddf0;strokeColor=#10739e;" vertex="1" parent="1">
          <mxGeometry x="445" y="640" width="120" height="60" as="geometry" />
        </mxCell>
        <mxCell id="7nTFXwoVaiZGbbg3Zt6U-6" value="&lt;font style=&quot;font-size: 18px&quot;&gt;Final Game&lt;/font&gt;" style="rounded=1;whiteSpace=wrap;html=1;fillColor=#dae8fc;strokeColor=#6c8ebf;" vertex="1" parent="1">
          <mxGeometry x="825" y="495" width="120" height="60" as="geometry" />
        </mxCell>
        <mxCell id="7nTFXwoVaiZGbbg3Zt6U-7" value="" style="endArrow=classic;html=1;entryX=0;entryY=0.5;entryDx=0;entryDy=0;exitX=1;exitY=0.5;exitDx=0;exitDy=0;" edge="1" parent="1" source="7nTFXwoVaiZGbbg3Zt6U-3" target="7nTFXwoVaiZGbbg3Zt6U-2">
          <mxGeometry width="50" height="50" relative="1" as="geometry">
            <mxPoint x="435" y="450" as="sourcePoint" />
            <mxPoint x="485" y="400" as="targetPoint" />
          </mxGeometry>
        </mxCell>
        <mxCell id="7nTFXwoVaiZGbbg3Zt6U-8" value="" style="endArrow=classic;html=1;entryX=0;entryY=0.5;entryDx=0;entryDy=0;" edge="1" parent="1" source="7nTFXwoVaiZGbbg3Zt6U-4" target="7nTFXwoVaiZGbbg3Zt6U-2">
          <mxGeometry width="50" height="50" relative="1" as="geometry">
            <mxPoint x="435" y="575" as="sourcePoint" />
            <mxPoint x="505.71067811865476" y="525" as="targetPoint" />
          </mxGeometry>
        </mxCell>
        <mxCell id="7nTFXwoVaiZGbbg3Zt6U-9" value="" style="endArrow=classic;html=1;entryX=0;entryY=0.5;entryDx=0;entryDy=0;" edge="1" parent="1" source="7nTFXwoVaiZGbbg3Zt6U-5" target="7nTFXwoVaiZGbbg3Zt6U-2">
          <mxGeometry width="50" height="50" relative="1" as="geometry">
            <mxPoint x="435" y="710" as="sourcePoint" />
            <mxPoint x="505.71067811865476" y="660" as="targetPoint" />
          </mxGeometry>
        </mxCell>
        <mxCell id="7nTFXwoVaiZGbbg3Zt6U-13" style="edgeStyle=orthogonalEdgeStyle;rounded=0;orthogonalLoop=1;jettySize=auto;html=1;" edge="1" parent="1" source="7nTFXwoVaiZGbbg3Zt6U-12">
          <mxGeometry relative="1" as="geometry">
            <mxPoint x="655" y="470" as="targetPoint" />
          </mxGeometry>
        </mxCell>
        <mxCell id="7nTFXwoVaiZGbbg3Zt6U-12" value="&lt;font style=&quot;font-size: 18px&quot;&gt;Shader&lt;/font&gt;" style="rounded=0;whiteSpace=wrap;html=1;fillColor=#bac8d3;strokeColor=#23445d;" vertex="1" parent="1">
          <mxGeometry x="790" y="300" width="120" height="60" as="geometry" />
        </mxCell>
        <mxCell id="7nTFXwoVaiZGbbg3Zt6U-14" value="&lt;font size=&quot;3&quot;&gt;UI/UX Design&lt;br&gt;&lt;/font&gt;" style="rounded=0;whiteSpace=wrap;html=1;fillColor=#d0cee2;strokeColor=#56517e;" vertex="1" parent="1">
          <mxGeometry x="540" y="125" width="120" height="60" as="geometry" />
        </mxCell>
        <mxCell id="7nTFXwoVaiZGbbg3Zt6U-25" style="edgeStyle=orthogonalEdgeStyle;rounded=0;orthogonalLoop=1;jettySize=auto;html=1;" edge="1" parent="1" source="7nTFXwoVaiZGbbg3Zt6U-22">
          <mxGeometry relative="1" as="geometry">
            <mxPoint x="410" y="322" as="targetPoint" />
          </mxGeometry>
        </mxCell>
        <mxCell id="7nTFXwoVaiZGbbg3Zt6U-22" value="&lt;font style=&quot;font-size: 18px&quot;&gt;2D models&lt;br&gt;&lt;/font&gt;" style="rounded=0;whiteSpace=wrap;html=1;fillColor=#ffe6cc;strokeColor=#d79b00;" vertex="1" parent="1">
          <mxGeometry x="350" y="210" width="120" height="60" as="geometry" />
        </mxCell>
        <mxCell id="7nTFXwoVaiZGbbg3Zt6U-24" style="edgeStyle=orthogonalEdgeStyle;rounded=0;orthogonalLoop=1;jettySize=auto;html=1;entryX=0;entryY=0.5;entryDx=0;entryDy=0;" edge="1" parent="1" source="7nTFXwoVaiZGbbg3Zt6U-23" target="7nTFXwoVaiZGbbg3Zt6U-3">
          <mxGeometry relative="1" as="geometry" />
        </mxCell>
        <mxCell id="7nTFXwoVaiZGbbg3Zt6U-23" value="&lt;font style=&quot;font-size: 18px&quot;&gt;3D models&lt;br&gt;&lt;/font&gt;" style="rounded=0;whiteSpace=wrap;html=1;fillColor=#ffe6cc;strokeColor=#d79b00;" vertex="1" parent="1">
          <mxGeometry x="180" y="320" width="120" height="60" as="geometry" />
        </mxCell>
        <mxCell id="7nTFXwoVaiZGbbg3Zt6U-29" style="edgeStyle=orthogonalEdgeStyle;rounded=0;orthogonalLoop=1;jettySize=auto;html=1;entryX=0;entryY=0.5;entryDx=0;entryDy=0;" edge="1" parent="1" source="7nTFXwoVaiZGbbg3Zt6U-26" target="7nTFXwoVaiZGbbg3Zt6U-23">
          <mxGeometry relative="1" as="geometry" />
        </mxCell>
        <mxCell id="7nTFXwoVaiZGbbg3Zt6U-26" value="" style="shape=image;verticalLabelPosition=bottom;labelBackgroundColor=#ffffff;verticalAlign=top;aspect=fixed;imageAspect=0;image=https://external-content.duckduckgo.com/iu/?u=https%3A%2F%2Ftse1.mm.bing.net%2Fth%3Fid%3DOIP.jBk70jHH6g-n4rb4ZNgc3AHaHa%26pid%3DApi&amp;f=1;" vertex="1" parent="1">
          <mxGeometry x="60" y="310" width="80" height="80" as="geometry" />
        </mxCell>
        <mxCell id="7nTFXwoVaiZGbbg3Zt6U-30" style="edgeStyle=orthogonalEdgeStyle;rounded=0;orthogonalLoop=1;jettySize=auto;html=1;entryX=0.5;entryY=0;entryDx=0;entryDy=0;" edge="1" parent="1" source="7nTFXwoVaiZGbbg3Zt6U-27" target="7nTFXwoVaiZGbbg3Zt6U-23">
          <mxGeometry relative="1" as="geometry" />
        </mxCell>
        <mxCell id="7nTFXwoVaiZGbbg3Zt6U-27" value="" style="shape=image;verticalLabelPosition=bottom;labelBackgroundColor=#ffffff;verticalAlign=top;aspect=fixed;imageAspect=0;image=https://external-content.duckduckgo.com/iu/?u=https%3A%2F%2Ftse1.mm.bing.net%2Fth%3Fid%3DOIP.UKePsm1QkwEkmk7YyHOQpAHaGD%26pid%3DApi&amp;f=1;" vertex="1" parent="1">
          <mxGeometry x="100" y="200" width="97.98" height="80" as="geometry" />
        </mxCell>
        <mxCell id="7nTFXwoVaiZGbbg3Zt6U-34" style="edgeStyle=orthogonalEdgeStyle;rounded=0;orthogonalLoop=1;jettySize=auto;html=1;entryX=0;entryY=0.5;entryDx=0;entryDy=0;" edge="1" parent="1" source="7nTFXwoVaiZGbbg3Zt6U-31" target="7nTFXwoVaiZGbbg3Zt6U-22">
          <mxGeometry relative="1" as="geometry" />
        </mxCell>
        <mxCell id="7nTFXwoVaiZGbbg3Zt6U-43" style="edgeStyle=orthogonalEdgeStyle;rounded=0;orthogonalLoop=1;jettySize=auto;html=1;entryX=0;entryY=0.5;entryDx=0;entryDy=0;" edge="1" parent="1" source="7nTFXwoVaiZGbbg3Zt6U-31" target="7nTFXwoVaiZGbbg3Zt6U-14">
          <mxGeometry relative="1" as="geometry">
            <mxPoint x="570" y="150" as="targetPoint" />
          </mxGeometry>
        </mxCell>
        <mxCell id="7nTFXwoVaiZGbbg3Zt6U-31" value="" style="shape=image;verticalLabelPosition=bottom;labelBackgroundColor=#ffffff;verticalAlign=top;aspect=fixed;imageAspect=0;image=https://external-content.duckduckgo.com/iu/?u=https%3A%2F%2Ftse4.mm.bing.net%2Fth%3Fid%3DOIP.rTAnpaUzst3czJmcDilTMAHaHO%26pid%3DApi&amp;f=1;" vertex="1" parent="1">
          <mxGeometry x="204.09" y="120" width="71.82" height="70" as="geometry" />
        </mxCell>
        <mxCell id="7nTFXwoVaiZGbbg3Zt6U-35" style="edgeStyle=orthogonalEdgeStyle;rounded=0;orthogonalLoop=1;jettySize=auto;html=1;entryX=0.5;entryY=0;entryDx=0;entryDy=0;" edge="1" parent="1" source="7nTFXwoVaiZGbbg3Zt6U-32" target="7nTFXwoVaiZGbbg3Zt6U-22">
          <mxGeometry relative="1" as="geometry" />
        </mxCell>
        <mxCell id="7nTFXwoVaiZGbbg3Zt6U-42" style="edgeStyle=orthogonalEdgeStyle;rounded=0;orthogonalLoop=1;jettySize=auto;html=1;entryX=0;entryY=0.5;entryDx=0;entryDy=0;" edge="1" parent="1" source="7nTFXwoVaiZGbbg3Zt6U-32" target="7nTFXwoVaiZGbbg3Zt6U-14">
          <mxGeometry relative="1" as="geometry" />
        </mxCell>
        <mxCell id="7nTFXwoVaiZGbbg3Zt6U-32" value="" style="shape=image;verticalLabelPosition=bottom;labelBackgroundColor=#ffffff;verticalAlign=top;aspect=fixed;imageAspect=0;image=https://external-content.duckduckgo.com/iu/?u=https%3A%2F%2Ftse3.mm.bing.net%2Fth%3Fid%3DOIP.xQIQHlQk7HTQmQdCpnP4OwHaHa%26pid%3DApi&amp;f=1;" vertex="1" parent="1">
          <mxGeometry x="370" y="30" width="80" height="80" as="geometry" />
        </mxCell>
        <mxCell id="7nTFXwoVaiZGbbg3Zt6U-39" style="edgeStyle=orthogonalEdgeStyle;rounded=0;orthogonalLoop=1;jettySize=auto;html=1;" edge="1" parent="1" source="7nTFXwoVaiZGbbg3Zt6U-36" target="7nTFXwoVaiZGbbg3Zt6U-4">
          <mxGeometry relative="1" as="geometry" />
        </mxCell>
        <mxCell id="7nTFXwoVaiZGbbg3Zt6U-36" value="" style="shape=image;verticalLabelPosition=bottom;labelBackgroundColor=#ffffff;verticalAlign=top;aspect=fixed;imageAspect=0;image=https://external-content.duckduckgo.com/iu/?u=https%3A%2F%2Ftse1.mm.bing.net%2Fth%3Fid%3DOIP.r_O4bc32nvNJ0ARuEjRAwQHaHa%26pid%3DApi&amp;f=1;" vertex="1" parent="1">
          <mxGeometry x="120" y="600" width="100" height="100" as="geometry" />
        </mxCell>
        <mxCell id="7nTFXwoVaiZGbbg3Zt6U-38" style="edgeStyle=orthogonalEdgeStyle;rounded=0;orthogonalLoop=1;jettySize=auto;html=1;entryX=0;entryY=0.5;entryDx=0;entryDy=0;" edge="1" parent="1" source="7nTFXwoVaiZGbbg3Zt6U-37" target="7nTFXwoVaiZGbbg3Zt6U-4">
          <mxGeometry relative="1" as="geometry" />
        </mxCell>
        <mxCell id="7nTFXwoVaiZGbbg3Zt6U-37" value="" style="shape=image;verticalLabelPosition=bottom;labelBackgroundColor=#ffffff;verticalAlign=top;aspect=fixed;imageAspect=0;image=https://external-content.duckduckgo.com/iu/?u=https%3A%2F%2Ftse1.mm.bing.net%2Fth%3Fid%3DOIP.inN7f1dFfxrqC9kN_wY7XAHaHa%26pid%3DApi&amp;f=1;" vertex="1" parent="1">
          <mxGeometry x="120" y="480" width="90" height="90" as="geometry" />
        </mxCell>
        <mxCell id="7nTFXwoVaiZGbbg3Zt6U-44" value="" style="shape=image;verticalLabelPosition=bottom;labelBackgroundColor=#ffffff;verticalAlign=top;aspect=fixed;imageAspect=0;image=https://external-content.duckduckgo.com/iu/?u=https%3A%2F%2Ftse1.mm.bing.net%2Fth%3Fid%3DOIP.mEXN9bBtkWILrV0Vw3OAzQHaFG%26pid%3DApi&amp;f=1;" vertex="1" parent="1">
          <mxGeometry x="446.84000000000003" y="810" width="116.32" height="80" as="geometry" />
        </mxCell>
        <mxCell id="7nTFXwoVaiZGbbg3Zt6U-45" value="" style="shape=image;verticalLabelPosition=bottom;labelBackgroundColor=#ffffff;verticalAlign=top;aspect=fixed;imageAspect=0;image=https://external-content.duckduckgo.com/iu/?u=https%3A%2F%2Ftse1.mm.bing.net%2Fth%3Fid%3DOIP.KDW4nNhofLY8xcJi4r7rCAHaHa%26pid%3DApi&amp;f=1;" vertex="1" parent="1">
          <mxGeometry x="310" y="800" width="100" height="100" as="geometry" />
        </mxCell>
      </root>
    </mxGraphModel>
  </diagram>
</mxfile>
